# Generated from fire_extinguisher_box.json for Minecraft Forge 1.12.2
mtllib fire_extinguisher_box.mtl
o fire_extinguisher_box
g element_0_east
usemtl red
v 0.8125 0 0.4375
v 0.8125 0.0625 0.4375
v 0.8125 0.0625 0.5
v 0.8125 0 0.5
vt 0.0625 0.125
vt 0.0625 0.0625
vt 0.125 0.0625
vt 0.125 0.125
f 1/1 2/2 3/3 4/4
g element_0_south
usemtl red
v 0.8125 0 0.5
v 0.8125 0.0625 0.5
v 0.75 0.0625 0.5
v 0.75 0 0.5
vt 0 0.125
vt 0 0.0625
vt 0.0625 0.0625
vt 0.0625 0.125
f 5/5 6/6 7/7 8/8
g element_0_down
usemtl red
v 0.75 0 0.5
v 0.75 0 0.4375
v 0.8125 0 0.4375
v 0.8125 0 0.5
vt 0 0.125
vt 0 0.0625
vt 0.0625 0.0625
vt 0.0625 0.125
f 9/9 10/10 11/11 12/12
g element_1_north
usemtl red
v 0.75 0 0.4375
v 0.720103 0.072178 0.4375
v 0.777845 0.096096 0.4375
v 0.807742 0.023918 0.4375
vt 0.0625 0.140625
vt 0.0625 0.0625
vt 0.125 0.0625
vt 0.125 0.140625
f 13/13 14/14 15/15 16/16
g element_1_south
usemtl red
v 0.807742 0.023918 0.5
v 0.777845 0.096096 0.5
v 0.720103 0.072178 0.5
v 0.75 0 0.5
vt 0 0.140625
vt 0 0.0625
vt 0.0625 0.0625
vt 0.0625 0.140625
f 17/17 18/18 19/19 20/20
g element_1_west
usemtl red
v 0.75 0 0.5
v 0.720103 0.072178 0.5
v 0.720103 0.072178 0.4375
v 0.75 0 0.4375
vt 0 0.140625
vt 0 0.0625
vt 0.0625 0.0625
vt 0.0625 0.140625
f 21/21 22/22 23/23 24/24
g element_2_north
usemtl red
v 0.75 0 0.4375
v 0.75 0.072178 0.407603
v 0.8125 0.072178 0.407603
v 0.8125 0 0.4375
vt 0.0625 0.140625
vt 0.0625 0.0625
vt 0.125 0.0625
vt 0.125 0.140625
f 25/25 26/26 27/27 28/28
g element_2_east
usemtl red
v 0.8125 0 0.4375
v 0.8125 0.072178 0.407603
v 0.8125 0.096096 0.465345
v 0.8125 0.023918 0.495242
vt 0.0625 0.140625
vt 0.0625 0.0625
vt 0.125 0.0625
vt 0.125 0.140625
f 29/29 30/30 31/31 32/32
g element_2_west
usemtl red
v 0.75 0.023918 0.495242
v 0.75 0.096096 0.465345
v 0.75 0.072178 0.407603
v 0.75 0 0.4375
vt 0 0.140625
vt 0 0.0625
vt 0.0625 0.0625
vt 0.0625 0.140625
f 33/33 34/34 35/35 36/36
g element_3_north
usemtl red
v 0.1875 0 0
v 0.1875 0.0625 0
v 0.25 0.0625 0
v 0.25 0 0
vt 0.0625 0.125
vt 0.0625 0.0625
vt 0.125 0.0625
vt 0.125 0.125
f 37/37 38/38 39/39 40/40
g element_3_west
usemtl red
v 0.1875 0 0.0625
v 0.1875 0.0625 0.0625
v 0.1875 0.0625 0
v 0.1875 0 0
vt 0 0.125
vt 0 0.0625
vt 0.0625 0.0625
vt 0.0625 0.125
f 41/41 42/42 43/43 44/44
g element_3_down
usemtl red
v 0.1875 0 0.0625
v 0.1875 0 0
v 0.25 0 0
v 0.25 0 0.0625
vt 0 0.125
vt 0 0.0625
vt 0.0625 0.0625
vt 0.0625 0.125
f 45/45 46/46 47/47 48/48
g element_4_east
usemtl red
v 0.25 0.023918 0.004758
v 0.25 0.096096 0.034655
v 0.25 0.072178 0.092397
v 0.25 0 0.0625
vt 0.0625 0.140625
vt 0.0625 0.0625
vt 0.125 0.0625
vt 0.125 0.140625
f 49/49 50/50 51/51 52/52
g element_4_south
usemtl red
v 0.25 0 0.0625
v 0.25 0.072178 0.092397
v 0.1875 0.072178 0.092397
v 0.1875 0 0.0625
vt 0 0.140625
vt 0 0.0625
vt 0.0625 0.0625
vt 0.0625 0.140625
f 53/53 54/54 55/55 56/56
g element_4_west
usemtl red
v 0.1875 0 0.0625
v 0.1875 0.072178 0.092397
v 0.1875 0.096096 0.034655
v 0.1875 0.023918 0.004758
vt 0 0.140625
vt 0 0.0625
vt 0.0625 0.0625
vt 0.0625 0.140625
f 57/57 58/58 59/59 60/60
g element_5_north
usemtl red
v 0.192258 0.023918 0
v 0.222155 0.096096 0
v 0.279897 0.072178 0
v 0.25 0 0
vt 0.0625 0.15625
vt 0.0625 0.078125
vt 0.125 0.078125
vt 0.125 0.15625
f 61/61 62/62 63/63 64/64
g element_5_east
usemtl red
v 0.25 0 0
v 0.279897 0.072178 0
v 0.279897 0.072178 0.0625
v 0.25 0 0.0625
vt 0.0625 0.15625
vt 0.0625 0.078125
vt 0.125 0.078125
vt 0.125 0.15625
f 65/65 66/66 67/67 68/68
g element_5_south
usemtl red
v 0.25 0 0.0625
v 0.279897 0.072178 0.0625
v 0.222155 0.096096 0.0625
v 0.192258 0.023918 0.0625
vt 0 0.15625
vt 0 0.078125
vt 0.0625 0.078125
vt 0.0625 0.15625
f 69/69 70/70 71/71 72/72
g element_6_north
usemtl red
v 0.75 0 0
v 0.75 0.0625 0
v 0.8125 0.0625 0
v 0.8125 0 0
vt 0.0625 0.125
vt 0.0625 0.0625
vt 0.125 0.0625
vt 0.125 0.125
f 73/73 74/74 75/75 76/76
g element_6_east
usemtl red
v 0.8125 0 0
v 0.8125 0.0625 0
v 0.8125 0.0625 0.0625
v 0.8125 0 0.0625
vt 0.0625 0.125
vt 0.0625 0.0625
vt 0.125 0.0625
vt 0.125 0.125
f 77/77 78/78 79/79 80/80
g element_6_down
usemtl red
v 0.75 0 0.0625
v 0.75 0 0
v 0.8125 0 0
v 0.8125 0 0.0625
vt 0 0.125
vt 0 0.0625
vt 0.0625 0.0625
vt 0.0625 0.125
f 81/81 82/82 83/83 84/84
g element_7_east
usemtl red
v 0.8125 0.023918 0.004758
v 0.8125 0.096096 0.034655
v 0.8125 0.072178 0.092397
v 0.8125 0 0.0625
vt 0.0625 0.140625
vt 0.0625 0.0625
vt 0.125 0.0625
vt 0.125 0.140625
f 85/85 86/86 87/87 88/88
g element_7_south
usemtl red
v 0.8125 0 0.0625
v 0.8125 0.072178 0.092397
v 0.75 0.072178 0.092397
v 0.75 0 0.0625
vt 0 0.140625
vt 0 0.0625
vt 0.0625 0.0625
vt 0.0625 0.140625
f 89/89 90/90 91/91 92/92
g element_7_west
usemtl red
v 0.75 0 0.0625
v 0.75 0.072178 0.092397
v 0.75 0.096096 0.034655
v 0.75 0.023918 0.004758
vt 0 0.140625
vt 0 0.0625
vt 0.0625 0.0625
vt 0.0625 0.140625
f 93/93 94/94 95/95 96/96
g element_8_north
usemtl red
v 0.75 0 0
v 0.720103 0.072178 0
v 0.777845 0.096096 0
v 0.807742 0.023918 0
vt 0.0625 0.140625
vt 0.0625 0.0625
vt 0.125 0.0625
vt 0.125 0.140625
f 97/97 98/98 99/99 100/100
g element_8_south
usemtl red
v 0.807742 0.023918 0.0625
v 0.777845 0.096096 0.0625
v 0.720103 0.072178 0.0625
v 0.75 0 0.0625
vt 0 0.140625
vt 0 0.0625
vt 0.0625 0.0625
vt 0.0625 0.140625
f 101/101 102/102 103/103 104/104
g element_8_west
usemtl red
v 0.75 0 0.0625
v 0.720103 0.072178 0.0625
v 0.720103 0.072178 0
v 0.75 0 0
vt 0 0.140625
vt 0 0.0625
vt 0.0625 0.0625
vt 0.0625 0.140625
f 105/105 106/106 107/107 108/108
g element_9_south
usemtl red
v 0.25 0 0.5
v 0.25 0.0625 0.5
v 0.1875 0.0625 0.5
v 0.1875 0 0.5
vt 0 0.125
vt 0 0.0625
vt 0.0625 0.0625
vt 0.0625 0.125
f 109/109 110/110 111/111 112/112
g element_9_west
usemtl red
v 0.1875 0 0.5
v 0.1875 0.0625 0.5
v 0.1875 0.0625 0.4375
v 0.1875 0 0.4375
vt 0 0.125
vt 0 0.0625
vt 0.0625 0.0625
vt 0.0625 0.125
f 113/113 114/114 115/115 116/116
g element_9_down
usemtl red
v 0.1875 0 0.5
v 0.1875 0 0.4375
v 0.25 0 0.4375
v 0.25 0 0.5
vt 0 0.125
vt 0 0.0625
vt 0.0625 0.0625
vt 0.0625 0.125
f 117/117 118/118 119/119 120/120
g element_10_north
usemtl red
v 0.1875 0 0.4375
v 0.1875 0.072178 0.407603
v 0.25 0.072178 0.407603
v 0.25 0 0.4375
vt 0.0625 0.140625
vt 0.0625 0.0625
vt 0.125 0.0625
vt 0.125 0.140625
f 121/121 122/122 123/123 124/124
g element_10_east
usemtl red
v 0.25 0 0.4375
v 0.25 0.072178 0.407603
v 0.25 0.096096 0.465345
v 0.25 0.023918 0.495242
vt 0.0625 0.140625
vt 0.0625 0.0625
vt 0.125 0.0625
vt 0.125 0.140625
f 125/125 126/126 127/127 128/128
g element_10_west
usemtl red
v 0.1875 0.023918 0.495242
v 0.1875 0.096096 0.465345
v 0.1875 0.072178 0.407603
v 0.1875 0 0.4375
vt 0 0.140625
vt 0 0.0625
vt 0.0625 0.0625
vt 0.0625 0.140625
f 129/129 130/130 131/131 132/132
g element_11_north
usemtl red
v 0.192258 0.023918 0.4375
v 0.222155 0.096096 0.4375
v 0.279897 0.072178 0.4375
v 0.25 0 0.4375
vt 0.0625 0.171875
vt 0.0625 0.09375
vt 0.125 0.09375
vt 0.125 0.171875
f 133/133 134/134 135/135 136/136
g element_11_east
usemtl red
v 0.25 0 0.4375
v 0.279897 0.072178 0.4375
v 0.279897 0.072178 0.5
v 0.25 0 0.5
vt 0.0625 0.171875
vt 0.0625 0.09375
vt 0.125 0.09375
vt 0.125 0.171875
f 137/137 138/138 139/139 140/140
g element_11_south
usemtl red
v 0.25 0 0.5
v 0.279897 0.072178 0.5
v 0.222155 0.096096 0.5
v 0.192258 0.023918 0.5
vt 0 0.171875
vt 0 0.09375
vt 0.0625 0.09375
vt 0.0625 0.171875
f 141/141 142/142 143/143 144/144
g element_12_north
usemtl red
v 0.15625 0.917375 0
v 0.15625 0.948625 0
v 0.84375 0.948625 0
v 0.84375 0.917375 0
vt 0 0.125
vt 0 0.09375
vt 0.6875 0.09375
vt 0.6875 0.125
f 145/145 146/146 147/147 148/148
g element_12_east
usemtl red
v 0.84375 0.917375 0
v 0.84375 0.948625 0
v 0.84375 0.948625 0.017188
v 0.84375 0.917375 0.017188
vt 0.107813 0.125
vt 0.107813 0.09375
vt 0.125 0.09375
vt 0.125 0.125
f 149/149 150/150 151/151 152/152
g element_12_west
usemtl red
v 0.15625 0.917375 0.017188
v 0.15625 0.948625 0.017188
v 0.15625 0.948625 0
v 0.15625 0.917375 0
vt 0 0.125
vt 0 0.09375
vt 0.017188 0.09375
vt 0.017188 0.125
f 153/153 154/154 155/155 156/156
g element_12_up
usemtl red
v 0.15625 0.948625 0
v 0.15625 0.948625 0.017188
v 0.84375 0.948625 0.017188
v 0.84375 0.948625 0
vt 0.015625 0.017188
vt 0.015625 0
vt 0.703125 0
vt 0.703125 0.017188
f 157/157 158/158 159/159 160/160
g element_12_down
usemtl red
v 0.15625 0.917375 0.017188
v 0.15625 0.917375 0
v 0.84375 0.917375 0
v 0.84375 0.917375 0.017188
vt 0.015625 0.125
vt 0.015625 0.107813
vt 0.703125 0.107813
vt 0.703125 0.125
f 161/161 162/162 163/163 164/164
g element_13_east
usemtl red
v 0.84375 0.917488 0.014355
v 0.84375 0.94862 0.017079
v 0.84375 0.900684 0.564986
v 0.84375 0.869553 0.562262
vt 0 0.125
vt 0 0.09375
vt 0.55 0.09375
vt 0.55 0.125
f 165/165 166/166 167/167 168/168
g element_13_south
usemtl red
v 0.84375 0.869553 0.562262
v 0.84375 0.900684 0.564986
v 0.15625 0.900684 0.564986
v 0.15625 0.869553 0.562262
vt 0.15625 0.125
vt 0.15625 0.09375
vt 0.84375 0.09375
vt 0.84375 0.125
f 169/169 170/170 171/171 172/172
g element_13_west
usemtl red
v 0.15625 0.869553 0.562262
v 0.15625 0.900684 0.564986
v 0.15625 0.94862 0.017079
v 0.15625 0.917488 0.014355
vt 0.075 0.125
vt 0.075 0.09375
vt 0.625 0.09375
vt 0.625 0.125
f 173/173 174/174 175/175 176/176
g element_13_up
usemtl red
v 0.15625 0.94862 0.017079
v 0.15625 0.900684 0.564986
v 0.84375 0.900684 0.564986
v 0.84375 0.94862 0.017079
vt 0.15625 0.625
vt 0.15625 0.075
vt 0.84375 0.075
vt 0.84375 0.625
f 177/177 178/178 179/179 180/180
g element_13_down
usemtl red
v 0.15625 0.869553 0.562262
v 0.15625 0.917488 0.014355
v 0.84375 0.917488 0.014355
v 0.84375 0.869553 0.562262
vt 0.15625 0.55
vt 0.15625 0
vt 0.84375 0
vt 0.84375 0.55
f 181/181 182/182 183/183 184/184
g element_14_east
usemtl red
v 0.8125 0.875 0.3125
v 0.8125 0.89375 0.3125
v 0.8125 0.89375 0.5
v 0.8125 0.875 0.5
vt 0 0.125
vt 0 0.10625
vt 0.1875 0.10625
vt 0.1875 0.125
f 185/185 186/186 187/187 188/188
g element_14_west
usemtl red
v 0.1875 0.875 0.5
v 0.1875 0.89375 0.5
v 0.1875 0.89375 0.3125
v 0.1875 0.875 0.3125
vt 0 0.125
vt 0 0.10625
vt 0.1875 0.10625
vt 0.1875 0.125
f 189/189 190/190 191/191 192/192
g element_15_north
usemtl red
v 0.1875 0.0625 0
v 0.1875 0.875 0
v 0.8125 0.875 0
v 0.8125 0.0625 0
vt 0.125 0.875
vt 0.125 0.0625
vt 0.75 0.0625
vt 0.75 0.875
f 193/193 194/194 195/195 196/196
g element_15_east
usemtl red
v 0.8125 0.0625 0
v 0.8125 0.875 0
v 0.8125 0.875 0.5
v 0.8125 0.0625 0.5
vt 0 0.875
vt 0 0.0625
vt 0.5 0.0625
vt 0.5 0.875
f 197/197 198/198 199/199 200/200
g element_15_south
usemtl front
v 0.8125 0.0625 0.5
v 0.8125 0.875 0.5
v 0.1875 0.875 0.5
v 0.1875 0.0625 0.5
vt 0.8125 0.96875
vt 0.8125 0.15625
vt 0.1875 0.15625
vt 0.1875 0.96875
f 201/201 202/202 203/203 204/204
g element_15_west
usemtl red
v 0.1875 0.0625 0.5
v 0.1875 0.875 0.5
v 0.1875 0.875 0
v 0.1875 0.0625 0
vt 0 0.875
vt 0 0.0625
vt 0.5 0.0625
vt 0.5 0.875
f 205/205 206/206 207/207 208/208
g element_15_down
usemtl red
v 0.1875 0.0625 0.5
v 0.1875 0.0625 0
v 0.8125 0.0625 0
v 0.8125 0.0625 0.5
vt 0.1875 0.5
vt 0.1875 0
vt 0.8125 0
vt 0.8125 0.5
f 209/209 210/210 211/211 212/212
g element_16_north
usemtl red
v 0.1875 0.875 0
v 0.1875 0.921875 0
v 0.8125 0.921875 0
v 0.8125 0.875 0
vt 0 0.125
vt 0 0.078125
vt 0.625 0.078125
vt 0.625 0.125
f 213/213 214/214 215/215 216/216
g element_16_east
usemtl red
v 0.8125 0.875 0
v 0.8125 0.921875 0
v 0.8125 0.921875 0.3125
v 0.8125 0.875 0.3125
vt 0.046875 0.125
vt 0.046875 0.078125
vt 0.359375 0.078125
vt 0.359375 0.125
f 217/217 218/218 219/219 220/220
g element_16_west
usemtl red
v 0.1875 0.875 0.3125
v 0.1875 0.921875 0.3125
v 0.1875 0.921875 0
v 0.1875 0.875 0
vt 0 0.125
vt 0 0.078125
vt 0.3125 0.078125
vt 0.3125 0.125
f 221/221 222/222 223/223 224/224
